<?xml version="1.0" encoding="utf-8"?>
<svg version="1.1" id="Layer_1" x="0px" y="0px" viewBox="0 0 437.4 209.6" style="enable-background:new 0 0 437.4 209.6;" xmlns="http://www.w3.org/2000/svg">
  <style type="text/css">
	.st0{fill:#FFFFFF;}
	.st1{fill:#EF3939;}
</style>
  <path class="st0" d="M95.1,128.1H58.7V65.7c0-1.5-0.8-2.4-2.2-2.4h-3.1c-1.3,0-2.2,1-2.2,2.4v67.4c0,1.5,0.8,2.3,2.2,2.3h41.7 c1.5,0,2.5-0.9,2.5-2.3v-2.8C97.6,128.9,96.7,128.1,95.1,128.1z"/>
  <path class="st0" d="M146.5,77.2c-4.8-3-10.3-4.5-16.3-4.5c0,0,0,0,0,0c-5.7,0-11.1,1.5-16.1,4.4c-4.9,2.9-8.9,6.8-11.8,11.7 c-2.9,4.9-4.4,10.3-4.4,16.1c0,5.7,1.5,11.1,4.5,15.9c3,4.9,6.9,8.7,11.9,11.7c4.9,2.9,10.2,4.3,16,4.3c0,0,0,0,0,0 c8.1,0,14.7-2.6,21.5-8.4c0.5-0.5,0.9-1.1,0.9-1.8c0-0.6-0.2-1.1-0.5-1.5l-1.4-1.8l-0.1-0.1c-0.3-0.3-0.7-0.6-1.4-0.6 c-0.6,0-1.3,0.2-1.7,0.6c-1.9,1.6-3.5,2.8-4.8,3.6c-1.8,1.2-5.8,3.2-12.6,3.2c0,0,0,0,0,0c-0.1,0-0.3,0-0.4,0 c-12.3,0-23.5-10.3-24.5-22.5l53,0c0,0,0,0,0,0c2.2,0,3.5-1.2,3.5-3.3c0-5.3-1.4-10.4-4-15.3C155,84.1,151.2,80.1,146.5,77.2z M154.6,100.4l-49.1,0c2-11.7,13-21.2,24.5-21c0.1,0,0.3,0,0.4,0C143.5,79.4,152.5,90,154.6,100.4z"/>
  <path class="st0" d="M204,136.6c5.7,0,11.1-1.5,16-4.3c4.9-2.9,8.8-6.7,11.7-11.7c2.9-4.9,4.3-10.3,4.3-16c0-5.7-1.5-11.1-4.3-16 c-2.9-4.9-6.7-8.8-11.7-11.7c-4.9-2.9-10.2-4.3-16-4.3c-9.9,0-19.2,4.8-24.4,12.3v-9.4c0-0.6-0.1-1.1-0.4-1.5 c-0.4-0.5-1-0.8-1.9-0.8h-2.7c-1.5,0-2.3,0.8-2.3,2.3v5.7v46.5v24c0,1.3,0.8,2,2,2h3.4c0.9,0,1.6-0.7,1.6-1.6v-17.1v-11 C185.1,131.9,194.3,136.6,204,136.6z M186.6,122.6c-4.9-4.9-7.7-11.5-7.5-18c-0.1-6.4,2.5-12.8,7.4-17.6c4.9-4.9,11.3-7.6,17.7-7.4 c4.4,0,8.5,1.1,12.2,3.4c3.7,2.3,6.7,5.4,8.9,9.2c2.2,3.9,3.3,8.1,3.3,12.5c0.1,6.5-2.6,13-7.5,17.9c-4.8,4.8-11,7.4-17.3,7.3 C197.7,130,191.4,127.3,186.6,122.6z"/>
  <path class="st0" d="M241.9,80.4h7.6v42c0,6.8,4.6,12.1,11.1,12.9c0.7,0.1,1.8,0.2,3.5,0.2c2,0,3-0.4,3-2.3v-2.4c0-1.8-1.3-2-2.8-2 c0,0,0,0,0,0l-1.8,0c-2,0-3.5-0.8-4.4-2.1c-1-1.5-1.5-3.2-1.5-5V80.4h10.1c1.3,0,2.3-1.4,2.3-2.6v-1.9c0-1.4-0.8-2.2-2.2-2.2h-10.1 v-13c0-1.5-0.8-2.5-1.9-2.5c-0.2,0-0.4,0-0.6,0.1l-2.6,0.7c-1.2,0.4-2,0.9-2,2.5v12.2h-7.6c-1.4,0-2.3,0.9-2.3,2.3v1.9 C239.6,79.2,240.6,80.4,241.9,80.4z"/>
  <path class="st0" d="M379.1,106.3c-4-2.9-8.9-5-14.3-6.3c-6.5-1.4-13.4-5.2-13.3-10.3c0-7.5,6.6-10.2,12.3-10.2c5.4,0,10.2,3,13,8 c0.7,1.3,1.5,1.9,2.4,1.9c0.3,0,0.7-0.1,1-0.3l2.2-1.2c0.6-0.3,0.9-0.9,0.9-1.7c0-0.5-0.1-1-0.3-1.3c-3.6-8.2-10.1-12.4-19.2-12.4 c-11.7,0-19.6,6.9-19.6,17.2c0,4.3,1.8,8,5.5,10.9c3.4,2.8,7.9,4.9,13.3,6.1c4.6,1.1,8.3,2.6,11.1,4.4c1.4,0.9,2.4,2.1,3.1,3.4 c0.6,1.2,0.9,2.6,0.9,4.1c0.1,2.4-0.8,4.5-2.6,6.3c-3.1,3.2-8.4,4.7-12,4.7c0,0-0.1,0-0.1,0c-3.4,0-6.5-0.8-9.1-2.5 c-2.6-1.6-4.2-3.8-5-6.6c-0.3-1.1-0.8-2.2-2.2-2.2c-0.1,0-0.2,0-0.4,0c-0.1,0-0.3,0-0.5,0.1l-1.9,0.4l-0.1,0c-1,0.4-1.6,1.2-1.6,2.1 c0,0.2,0.1,0.7,0.2,1.1c2,8.6,10.2,14.3,20.6,14.3c0.1,0,0.2,0,0.4,0c6.6,0,12.7-2.3,16.7-6.4c3.2-3.2,4.8-7.2,4.7-11.6 c0-2.8-0.6-5.3-1.8-7.5C382.4,109.3,381,107.6,379.1,106.3z"/>
  <path class="st1" d="M348.9,45.7c0-6.3-3.3-11.9-8.2-15.1c-2.8-1.8-6.2-2.9-9.7-2.9c-9.9,0-18,8.1-18,18c0,4.8,1.9,9.1,4.9,12.3 c-3.7,4.4-6.6,9.3-8.8,14.7c-1.6-0.2-3.2-0.4-4.9-0.4c-17.7,0-32.1,14.4-32.1,32.1c0,14.7,9.9,27.1,23.4,30.9 c-6.8,17.3-23.7,29.7-43.4,29.7c-16.8,0-31.6-9-39.8-22.4c-2.5,0.5-5,0.9-7.7,0.9c9,17,26.9,28.6,47.4,28.6 c23.3,0,43.1-14.9,50.5-35.6c0.5,0,1,0,1.6,0c17.7,0,32.1-14.4,32.1-32.1c0-13.6-8.4-25.2-20.3-29.9c1.9-4.6,4.5-8.8,7.7-12.5 c1,0.4,2,0.8,3.1,1c1.3,0.3,2.7,0.5,4.1,0.5C340.8,63.7,348.9,55.6,348.9,45.7z M304.2,129.5c-13.8,0-25-11.2-25-25s11.2-25,25-25 s25,11.2,25,25S318,129.5,304.2,129.5z M330.9,34.9c0.6,0,1.3,0.1,1.9,0.2c5.1,0.9,9,5.3,9,10.7c0,6-4.9,10.8-10.8,10.8 s-10.8-4.9-10.8-10.8c0-1.4,0.3-2.7,0.8-4C322.4,37.7,326.4,34.9,330.9,34.9z"/>
</svg>
