<?xml version="1.0" encoding="utf-8"?>
<!-- Generator: Adobe Illustrator 27.1.1, SVG Export Plug-In . SVG Version: 6.00 Build 0)  -->
<svg version="1.1" id="Layer_1" xmlns="http://www.w3.org/2000/svg" xmlns:xlink="http://www.w3.org/1999/xlink" x="0px" y="0px"
	 viewBox="0 0 115.5026 115.5026" style="enable-background:new 0 0 115.5026 115.5026;" xml:space="preserve">
<path style="fill:#181139;" d="M115.5026,0h-13.957c0.0002,0.0315,0.0031,0.0623,0.0031,0.0938
	c0,9.718-7.9059,17.6239-17.6239,17.6239c-1.3796,0-2.7163-0.1754-4.0055-0.4767c-1.0634-0.2485-2.0913-0.5864-3.0715-1.0182
	c-3.1162,3.6283-5.6772,7.7443-7.5408,12.2242c11.6719,4.6192,19.9532,16.0091,19.9532,29.3043
	c0,17.374-14.1349,31.5089-31.5089,31.5089c-0.5161,0-1.0288-0.0143-1.5388-0.039c-3.8856,10.8397-11.2302,20.0454-20.6959,26.2814
	h79.986V0z"/>
<circle style="fill:#EF3939;" cx="57.7513" cy="57.7513" r="24.5214"/>
<path style="fill:#181139;" d="M49.1788,88.0652c-13.2195-3.744-22.9364-15.9116-22.9364-30.3139
	c0-17.374,14.1349-31.5089,31.5089-31.5089c1.6223,0,3.2161,0.1237,4.7729,0.3612c2.0918-5.2813,5.0061-10.1484,8.5975-14.4351
	c-2.9796-3.1577-4.8209-7.4008-4.8209-12.0747c0-0.0317,0.0046-0.0622,0.0048-0.0938H0v115.5026h18.8623
	C32.7495,111.6378,43.9877,101.3537,49.1788,88.0652z"/>
<path style="fill:#EF3939;" d="M83.9248,10.7302c5.8651,0,10.6364-4.7714,10.6364-10.6364c0-0.0316-0.004-0.0623-0.0043-0.0938
	H73.293c-0.0003,0.0316-0.0046,0.0621-0.0046,0.0938C73.2884,5.9589,78.0598,10.7302,83.9248,10.7302z"/>
<path style="fill:#FFFFFF;" d="M56.2125,89.2212c0.51,0.0247,1.0228,0.039,1.5388,0.039c17.374,0,31.5089-14.1349,31.5089-31.5089
	c0-13.2952-8.2814-24.6851-19.9532-29.3043c1.8635-4.4799,4.4246-8.5959,7.5408-12.2242c0.9802,0.4318,2.0082,0.7698,3.0715,1.0182
	c1.2892,0.3013,2.6259,0.4767,4.0055,0.4767c9.718,0,17.6239-7.9059,17.6239-17.6239c0-0.0315-0.0029-0.0623-0.0031-0.0938h-6.9887
	c0.0003,0.0316,0.0043,0.0622,0.0043,0.0938c0,5.8651-4.7714,10.6364-10.6364,10.6364S73.2884,5.9589,73.2884,0.0938
	c0-0.0317,0.0043-0.0622,0.0046-0.0938h-6.9874c-0.0002,0.0316-0.0048,0.0621-0.0048,0.0938c0,4.674,1.8413,8.9171,4.8209,12.0747
	c-3.5914,4.2867-6.5057,9.1537-8.5975,14.4351c-1.5569-0.2375-3.1507-0.3612-4.7729-0.3612
	c-17.374,0-31.5089,14.1349-31.5089,31.5089c0,14.4023,9.7169,26.5699,22.9364,30.3139
	c-5.1912,13.2885-16.4293,23.5726-30.3165,27.4374h16.6543C44.9824,109.2666,52.327,100.0609,56.2125,89.2212z M33.2299,57.7513
	c0-13.5211,11.0004-24.5214,24.5214-24.5214s24.5214,11.0004,24.5214,24.5214S71.2724,82.2727,57.7513,82.2727
	S33.2299,71.2723,33.2299,57.7513z"/>
</svg>
