<?xml version="1.0" encoding="utf-8"?>
<!-- Generator: Adobe Illustrator 27.1.1, SVG Export Plug-In . SVG Version: 6.00 Build 0)  -->
<svg version="1.1" id="Layer_1" xmlns="http://www.w3.org/2000/svg" xmlns:xlink="http://www.w3.org/1999/xlink" x="0px" y="0px"
	 viewBox="0 0 437.4294 209.6185" style="enable-background:new 0 0 437.4294 209.6185;" xml:space="preserve">
<path style="fill:none;" d="M130.0327,79.3931c-11.4854-0.23-22.52,9.3486-24.5034,21.0117l49.1157,0.0293
	c-2.1729-10.418-11.1821-21.0449-24.1987-21.0449C130.3081,79.3892,130.1714,79.3907,130.0327,79.3931z"/>
<path style="fill:#181139;" d="M95.1109,128.1089H58.6797V65.6861c0-1.5234-0.8169-2.4331-2.1855-2.4331h-3.1187
	c-1.3159,0-2.2349,1.0005-2.2349,2.4331v67.4297c0,1.4521,0.8145,2.2852,2.2349,2.2852h41.7353c1.4844,0,2.4819-0.9375,2.4819-2.333
	v-2.7744C97.5928,128.9253,96.6651,128.1089,95.1109,128.1089z"/>
<path style="fill:#181139;" d="M146.4561,77.1739c-4.8252-3.001-10.3037-4.5249-16.2837-4.5288c-0.0068,0-0.0137,0-0.0205,0
	c-5.7349,0-11.1377,1.4639-16.0566,4.3511c-4.916,2.8853-8.8721,6.8364-11.7593,11.7456
	c-2.8975,4.9248-4.3687,10.332-4.3721,16.0713c-0.0034,5.7188,1.4966,11.0654,4.4565,15.8887
	c2.9893,4.9209,6.8789,8.7334,11.8887,11.6514c4.8657,2.8633,10.2397,4.3174,15.9717,4.3203c0.0073,0,0.0146,0,0.022,0
	c8.123,0,14.7441-2.5869,21.4683-8.3906c0.5493-0.4805,0.8516-1.1201,0.8516-1.8008c0.001-0.6074-0.1743-1.1035-0.5205-1.4756
	l-1.3569-1.8428l-0.0732-0.0859c-0.2637-0.2637-0.6929-0.6152-1.3716-0.6152c-0.6421,0-1.2549,0.2217-1.7124,0.6143
	c-1.9346,1.585-3.5459,2.8008-4.7969,3.6182c-1.7979,1.208-5.8218,3.2314-12.5986,3.2314c-0.0073,0-0.0142,0-0.021,0
	c-0.1357,0.0029-0.269,0.0039-0.4043,0.0039c-12.2642,0-23.4736-10.3262-24.5088-22.4814l53.0127,0.0322c0.0015,0,0.0024,0,0.0034,0
	c2.2373,0,3.4697-1.1621,3.4712-3.2715c0.0034-5.2588-1.3574-10.3945-4.0464-15.2705
	C155.0015,84.0953,151.2188,80.1363,146.4561,77.1739z M154.6451,100.4341l-49.1157-0.0293
	c1.9834-11.6631,13.0181-21.2417,24.5034-21.0117c0.1387-0.0024,0.2754-0.0039,0.4136-0.0039
	C143.4629,79.3892,152.4722,90.0162,154.6451,100.4341z"/>
<path style="fill:#181139;" d="M204.0386,136.6382c5.7319,0,11.1069-1.4502,15.9746-4.3115
	c4.938-2.9014,8.75-6.7129,11.6533-11.6533c2.8608-4.8672,4.311-10.2578,4.311-16.0244c0-5.7324-1.4502-11.1064-4.311-15.9746
	c-2.9019-4.9385-6.7134-8.75-11.6533-11.6533c-4.8687-2.8618-10.2437-4.3125-15.9746-4.3125
	c-9.938,0-19.2021,4.7583-24.3516,12.3174v-9.438c0-0.5946-0.1465-1.0788-0.411-1.4511c-0.3815-0.5369-1.0157-0.834-1.8727-0.834
	h-2.6738c-1.4521,0-2.2852,0.833-2.2852,2.2852v5.6964v46.4791v23.9676c0,1.2568,0.7808,2.0371,2.0371,2.0371h3.3667
	c0.9209,0,1.6421-0.6992,1.6421-1.5908v-17.098v-10.984C185.0884,131.8892,194.2749,136.6382,204.0386,136.6382z M186.6358,122.5591
	c-4.9346-4.9346-7.6831-11.4932-7.542-18.0254c-0.1367-6.3506,2.5439-12.751,7.3545-17.5605
	c4.8521-4.8521,11.3037-7.5547,17.7383-7.417c4.3691,0,8.4863,1.1465,12.2314,3.4043c3.7344,2.2979,6.7456,5.4053,8.9492,9.2354
	c2.1699,3.9072,3.2695,8.0967,3.2695,12.4697c0.1396,6.4619-2.5967,12.9844-7.5083,17.8955
	c-4.7617,4.7617-11.0469,7.3857-17.2544,7.2803C197.6856,129.9712,191.396,127.3208,186.6358,122.5591z"/>
<path style="fill:#181139;" d="M241.8955,80.3975h7.5669v42.0259c0,6.8174,4.5674,12.1309,11.0825,12.9189
	c0.6836,0.1055,1.8379,0.1572,3.5303,0.1572c2.0078,0,3.0273-0.3535,3.0273-2.2842v-2.377c0-1.7891-1.334-2.0371-2.7568-2.0371
	c0,0-0.001,0-0.002,0l-1.7871-0.0488c-2.0117-0.0439-3.4883-0.7627-4.3896-2.1367c-0.9697-1.4805-1.4619-3.1738-1.4619-5.0352
	V80.3975h10.0928c1.3076,0,2.2852-1.3628,2.2852-2.5815v-1.9312c0-1.3999-0.8359-2.2354-2.2354-2.2354h-10.1426V60.6861
	c0-1.4619-0.7969-2.4829-1.9375-2.4829c-0.1865,0-0.4121,0-0.6392,0.0884l-2.6489,0.6865
	c-1.2109,0.3682-2.0171,0.9263-2.0171,2.4507v12.2207h-7.5669c-1.4185,0-2.335,0.897-2.335,2.2852v1.8813
	C239.5606,79.2393,240.6079,80.3975,241.8955,80.3975z"/>
<path style="fill:#181139;" d="M379.1182,106.2691c-4.0488-2.9219-8.8545-5.0293-14.291-6.2646
	c-6.5049-1.3975-13.4473-5.2129-13.3203-10.3066c0-7.5225,6.6367-10.1914,12.3203-10.1914c5.3574,0,10.2207,3.002,13.001,8.0146
	c0.6729,1.2861,1.4785,1.9375,2.3955,1.9375c0.3311,0,0.7061-0.1113,0.9922-0.2832l2.2021-1.1523
	c0.5947-0.3408,0.9229-0.9414,0.9229-1.6924c0-0.5205-0.0908-0.9541-0.2617-1.292c-3.6367-8.2466-10.0967-12.4282-19.2021-12.4282
	c-11.7305,0-19.6123,6.9263-19.6123,17.2349c0,4.3125,1.8438,7.9746,5.4756,10.8809c3.4482,2.7979,7.9121,4.8623,13.2705,6.1377
	c4.5859,1.085,8.3193,2.5654,11.0977,4.4023c1.4159,0.9354,2.4412,2.0535,3.106,3.3672c0.6053,1.1962,0.9135,2.5535,0.9135,4.1005
	c0.0742,2.3857-0.79,4.5176-2.5684,6.3389c-3.1445,3.2178-8.4053,4.6689-12.0205,4.6689c-0.0361,0-0.0723,0-0.1074,0
	c-3.4268,0-6.4893-0.8438-9.1035-2.5068c-2.5918-1.6484-4.2363-3.8076-5.0293-6.6064c-0.3203-1.0996-0.751-2.1738-2.1553-2.1738
	c-0.0742,0-0.2109,0.0146-0.4062,0.0449c-0.1133,0.0166-0.2559,0.0381-0.5088,0.0742l-1.8818,0.4463l-0.1045,0.0332
	c-1.0244,0.4082-1.6113,1.1846-1.6113,2.1309c0,0.2285,0.0625,0.6592,0.2178,1.1094c1.9707,8.5801,10.2432,14.3447,20.5732,14.3447
	c0.125,0.002,0.249,0.002,0.374,0.002c6.5947,0,12.6748-2.3193,16.7275-6.3945c3.1895-3.208,4.8311-7.2363,4.748-11.6357
	c0-2.8187-0.6185-5.3109-1.8062-7.481C382.4437,109.2624,381.0062,107.631,379.1182,106.2691z"/>
<path style="fill:#EF3939;" d="M348.9043,45.7325c0-6.3157-3.2826-11.8699-8.2238-15.0756
	c-2.811-1.8237-6.1537-2.8947-9.7469-2.8947c-9.9092,0-17.9707,8.0615-17.9707,17.9702c0,4.7659,1.8775,9.0925,4.9157,12.3123
	c-3.6619,4.3709-6.6334,9.3336-8.7663,14.7186c-1.5873-0.2422-3.2123-0.3683-4.8662-0.3683
	c-17.7158,0-32.1289,14.4131-32.1289,32.1289c0,14.6854,9.9077,27.0922,23.3869,30.9101
	c-6.7762,17.3461-23.6572,29.6719-43.3742,29.6719c-16.8195,0-31.583-8.9662-39.7656-22.369
	c-2.4778,0.5446-5.0429,0.8519-7.6721,0.9023c9.0226,16.99,26.8969,28.5917,47.4377,28.5917
	c23.2646,0,43.1121-14.8788,50.5461-35.6179c0.5204,0.0251,1.0435,0.0398,1.5701,0.0398c17.7158,0,32.1289-14.4131,32.1289-32.1289
	c0-13.557-8.4446-25.1712-20.3465-29.8811c1.9001-4.5678,4.5115-8.7646,7.6888-12.4641c0.9996,0.4404,2.0479,0.785,3.1324,1.0384
	c1.3144,0.3071,2.6773,0.486,4.0839,0.486C340.8428,63.7032,348.9043,55.6416,348.9043,45.7325z M304.2461,129.5279
	c-13.7871,0-25.0039-11.2168-25.0039-25.0039s11.2168-25.0039,25.0039-25.0039S329.25,90.7369,329.25,104.524
	S318.0332,129.5279,304.2461,129.5279z M330.9336,34.8872c0.645,0,1.2737,0.0671,1.8881,0.1755
	c5.0818,0.8974,8.9576,5.3347,8.9576,10.6697c0,5.9805-4.8652,10.8457-10.8457,10.8457s-10.8457-4.8652-10.8457-10.8457
	c0-1.3967,0.2746-2.7282,0.7576-3.9555C322.4306,37.7496,326.35,34.8872,330.9336,34.8872z"/>
</svg>
