<?xml version="1.0" encoding="utf-8"?>
<svg viewBox="0 0 2000 500" width="500px" height="125px" xmlns="http://www.w3.org/2000/svg" xmlns:bx="https://boxy-svg.com">
  <path d="M 238.4 338.435 L 238.4 128.435 L 248.6 128.435 L 248.6 329.135 L 371.6 329.135 L 371.6 338.435 L 238.4 338.435 ZM 466.696 330.335 C 477.296 330.335 487.096 328.385 496.096 324.485 C 505.096 320.585 512.596 314.835 518.596 307.235 L 524.596 313.835 C 517.796 322.235 509.346 328.585 499.246 332.885 C 489.146 337.185 478.196 339.335 466.396 339.335 C 451.396 339.335 437.896 335.985 425.896 329.285 C 413.896 322.585 404.496 313.235 397.696 301.235 C 390.896 289.235 387.496 275.635 387.496 260.435 C 387.496 245.235 390.696 231.635 397.096 219.635 C 403.496 207.635 412.346 198.285 423.646 191.585 C 434.946 184.885 447.796 181.535 462.196 181.535 C 475.396 181.535 487.296 184.685 497.896 190.985 C 508.496 197.285 516.946 205.835 523.246 216.635 C 529.546 227.435 533.096 239.335 533.896 252.335 L 399.496 279.035 C 403.296 294.635 411.196 307.085 423.196 316.385 C 435.196 325.685 449.696 330.335 466.696 330.335 Z M 462.196 190.535 C 449.596 190.535 438.396 193.485 428.596 199.385 C 418.796 205.285 411.096 213.485 405.496 223.985 C 399.896 234.485 397.096 246.335 397.096 259.535 C 397.096 262.335 397.296 266.135 397.696 270.935 L 523.696 246.335 C 522.296 236.335 518.896 227.085 513.496 218.585 C 508.096 210.085 500.996 203.285 492.196 198.185 C 483.396 193.085 473.396 190.535 462.196 190.535 ZM 659.592 181.535 C 673.792 181.535 686.692 184.885 698.292 191.585 C 709.892 198.285 719.042 207.685 725.742 219.785 C 732.442 231.885 735.792 245.535 735.792 260.735 C 735.792 275.935 732.442 289.485 725.742 301.385 C 719.042 313.285 709.892 322.585 698.292 329.285 C 686.692 335.985 673.792 339.335 659.592 339.335 C 644.592 339.335 631.142 335.535 619.242 327.935 C 607.342 320.335 598.492 309.935 592.692 296.735 L 592.692 396.635 L 582.792 396.635 L 582.792 182.735 L 592.392 182.735 L 592.392 225.335 C 598.192 211.735 607.042 201.035 618.942 193.235 C 630.842 185.435 644.392 181.535 659.592 181.535 Z M 659.292 330.335 C 671.892 330.335 683.242 327.385 693.342 321.485 C 703.442 315.585 711.392 307.385 717.192 296.885 C 722.992 286.385 725.892 274.335 725.892 260.735 C 725.892 247.135 722.992 235.035 717.192 224.435 C 711.392 213.835 703.442 205.585 693.342 199.685 C 683.242 193.785 671.892 190.835 659.292 190.835 C 646.692 190.835 635.342 193.785 625.242 199.685 C 615.142 205.585 607.192 213.835 601.392 224.435 C 595.592 235.035 592.692 247.135 592.692 260.735 C 592.692 274.335 595.592 286.385 601.392 296.885 C 607.192 307.385 615.142 315.585 625.242 321.485 C 635.342 327.385 646.692 330.335 659.292 330.335 ZM 848.587 321.335 L 853.687 328.535 C 850.087 331.935 845.487 334.585 839.887 336.485 C 834.287 338.385 828.487 339.335 822.487 339.335 C 809.887 339.335 800.137 335.785 793.237 328.685 C 786.337 321.585 782.887 311.835 782.887 299.435 L 782.887 148.535 L 792.787 148.535 L 792.787 182.735 L 844.087 182.735 L 844.087 191.435 L 792.787 191.435 L 792.787 297.935 C 792.787 308.535 795.387 316.635 800.587 322.235 C 805.787 327.835 813.387 330.635 823.387 330.635 C 828.187 330.635 832.787 329.835 837.187 328.235 C 841.587 326.635 845.387 324.335 848.587 321.335 ZM 950.885 339.335 C 936.485 339.335 923.435 335.985 911.735 329.285 C 900.035 322.585 890.885 313.235 884.285 301.235 C 877.685 289.235 874.385 275.635 874.385 260.435 C 874.385 245.235 877.685 231.635 884.285 219.635 C 890.885 207.635 900.035 198.285 911.735 191.585 C 923.435 184.885 936.485 181.535 950.885 181.535 C 965.485 181.535 978.585 184.885 990.185 191.585 C 1001.785 198.285 1010.885 207.635 1017.485 219.635 C 1024.085 231.635 1027.385 245.235 1027.385 260.435 C 1027.385 275.635 1024.085 289.235 1017.485 301.235 C 1010.885 313.235 1001.785 322.585 990.185 329.285 C 978.585 335.985 965.485 339.335 950.885 339.335 Z M 950.885 330.335 C 963.485 330.335 974.835 327.385 984.935 321.485 C 995.035 315.585 1002.985 307.335 1008.785 296.735 C 1014.585 286.135 1017.485 274.035 1017.485 260.435 C 1017.485 246.835 1014.585 234.785 1008.785 224.285 C 1002.985 213.785 995.035 205.585 984.935 199.685 C 974.835 193.785 963.485 190.835 950.885 190.835 C 938.285 190.835 926.935 193.785 916.835 199.685 C 906.735 205.585 898.785 213.785 892.985 224.285 C 887.185 234.785 884.285 246.835 884.285 260.435 C 884.285 274.035 887.185 286.135 892.985 296.735 C 898.785 307.335 906.735 315.585 916.835 321.485 C 926.935 327.385 938.285 330.335 950.885 330.335 ZM 1113.781 339.335 C 1101.181 339.335 1089.331 337.435 1078.231 333.635 C 1067.131 329.835 1058.481 324.835 1052.281 318.635 L 1057.081 310.835 C 1063.481 316.435 1071.731 321.135 1081.831 324.935 C 1091.931 328.735 1102.681 330.635 1114.081 330.635 C 1130.881 330.635 1143.281 327.785 1151.281 322.085 C 1159.281 316.385 1163.281 308.435 1163.281 298.235 C 1163.281 291.035 1161.131 285.335 1156.831 281.135 C 1152.531 276.935 1147.181 273.835 1140.781 271.835 C 1134.381 269.835 1125.781 267.835 1114.981 265.835 C 1102.381 263.435 1092.331 260.985 1084.831 258.485 C 1077.331 255.985 1070.981 251.935 1065.781 246.335 C 1060.581 240.735 1057.981 232.935 1057.981 222.935 C 1057.981 211.135 1062.831 201.285 1072.531 193.385 C 1082.231 185.485 1096.381 181.535 1114.981 181.535 C 1124.581 181.535 1134.181 182.985 1143.781 185.885 C 1153.381 188.785 1161.181 192.635 1167.181 197.435 L 1162.081 205.235 C 1155.881 200.435 1148.631 196.785 1140.331 194.285 C 1132.031 191.785 1123.481 190.535 1114.681 190.535 C 1099.281 190.535 1087.681 193.485 1079.881 199.385 C 1072.081 205.285 1068.181 213.035 1068.181 222.635 C 1068.181 230.235 1070.381 236.235 1074.781 240.635 C 1079.181 245.035 1084.631 248.285 1091.131 250.385 C 1097.631 252.485 1106.481 254.635 1117.681 256.835 C 1129.681 259.035 1139.381 261.385 1146.781 263.885 C 1154.181 266.385 1160.431 270.335 1165.531 275.735 C 1170.631 281.135 1173.181 288.635 1173.181 298.235 C 1173.181 310.835 1168.081 320.835 1157.881 328.235 C 1147.681 335.635 1132.981 339.335 1113.781 339.335 Z" transform="matrix(1, 0, 0, 1, 0, 0)" style="fill: rgb(51, 51, 51); white-space: pre;"/>
  <rect x="1260.975" y="81.625" width="10.025" height="300" style="fill: rgb(51, 51, 51);"/>
  <g transform="matrix(1, 0, 0, 1, 102, -18.375)">
    <rect x="807.381" y="175" width="6" height="150" style="fill: rgb(252, 32, 32);" transform="matrix(0.897117, 0.441793, -0.441793, 0.897117, 704.711914, -348.693634)"/>
    <circle style="fill: none; stroke-width: 6px; stroke: rgb(252, 32, 32);" cx="1353.5" cy="362.589" r="37.5" transform="matrix(0.897117, 0.441793, -0.441793, 0.897117, 218.816512, -587.977126)"/>
    <rect x="1300" y="100" width="343.757" height="74.974" style="fill: rgb(255, 255, 255); stroke: rgb(252, 32, 32); stroke-width: 7px;"/>
  </g>
  <rect x="1530.999" y="156.625" width="6" height="150" style="fill: rgb(252, 32, 32);"/>
  <circle style="fill: none; stroke-width: 6px; stroke: rgb(252, 32, 32);" cx="1534.061" cy="344.447" r="37.5"/>
  <rect x="1611.98" y="156.303" width="6" height="150" style="fill: rgb(252, 32, 32);"/>
  <rect x="1691.98" y="156.303" width="6" height="150" style="fill: rgb(252, 32, 32);"/>
  <circle style="fill: none; stroke-width: 6px; stroke: rgb(252, 32, 32);" cx="1614.481" cy="343.892" r="37.5"/>
  <circle style="fill: none; stroke-width: 6px; stroke: rgb(252, 32, 32);" cx="1695.042" cy="344.125" r="37.5"/>
</svg>