<svg xmlns="http://www.w3.org/2000/svg" xmlns:xlink="http://www.w3.org/1999/xlink" x="0px" y="0px"
	 viewBox="0 0 24 24" style="enable-background:new 0 0 24 24;" xml:space="preserve">
<g>
	<path d="M10.1,17.8C7.6,17,5.9,14.6,5.9,12c0-3.4,2.7-6.1,6.1-6.1c0.3,0,0.5,0,0.8,0
		c0.4-0.9,0.9-1.7,1.5-2.5c-0.5-0.6-0.8-1.4-0.8-2.3c0-0.3,0-0.7,0.1-1c-0.5-0.1-1-0.1-1.5-0.1C5.4,0.1,0.1,5.4,0.1,12
		c0,4.3,2.3,8.1,5.8,10.2L6,22.1C7.9,21.2,9.3,19.7,10.1,17.8z"/>
	<path d="M16.9,3c0.7,0,1.3-0.4,1.6-0.9l0,0c-1-0.6-2.1-1.1-3.2-1.5l0,0c-0.1,0.2-0.1,0.4-0.1,0.6
		C15.1,2.2,15.9,3,16.9,3z"/>
	<path d="M19.9,3.1c-0.7,1-1.8,1.6-2.9,1.6c-0.3,0-0.5,0-0.8-0.1c-0.2,0-0.3-0.1-0.5-0.1
		c-0.5,0.6-0.9,1.2-1.2,1.9c2.2,1,3.7,3.1,3.7,5.6c0,3.4-2.7,6.1-6.1,6.1c0,0-0.1,0-0.1,0c-0.8,2.1-2.2,3.8-4.1,5
		c1.3,0.5,2.7,0.8,4.2,0.8c6.6,0,11.9-5.3,11.9-11.9C23.9,8.4,22.3,5.3,19.9,3.1z"/>
	<circle cx="12" cy="12" r="4.4"/>
</g>
</svg>
